<svg id="Lager_1" data-name="Lager 1" xmlns="http://www.w3.org/2000/svg" xmlns:xlink="http://www.w3.org/1999/xlink" viewBox="0 0 607.77 297.31"><defs><symbol id="New_Symbol" data-name="New Symbol" viewBox="0 0 236.47 294.37"><path d="M144.8,55.13a116.18,116.18,0,0,0,3.66,224.2,116.18,116.18,0,1,1-3.66-224.2Z" style="fill:#e45f68"/><path d="M196.42,90.44a116.18,116.18,0,0,1-186.19,125,116.18,116.18,0,1,0,186.19-125Z" style="fill:#5db1a1"/><path d="M142.46,34.31A116.18,116.18,0,0,1,10.23,215.4,116.18,116.18,0,1,0,142.46,34.31Z" style="fill:#64bfae"/><path d="M72.53,0A116.25,116.25,0,0,1,86.78,188.24,115.71,115.71,0,0,1,10.23,215.4,116.18,116.18,0,1,0,72.53,0Z" style="fill:#6fc7b7"/></symbol></defs><title>logo</title><use id="On_white_background" data-name="On white background" width="236.47" height="294.37" xlink:href="#New_Symbol"/><text transform="translate(256.6 254.32) scale(0.8 0.78)" style="font-size:114px;fill:#e65f68;font-family:Arvo-Bold, Arvo;font-weight:700;letter-spacing:-0.05500124129938693em">Plantify</text><circle cx="502.77" cy="195" r="10" style="fill:#5db1a1"/></svg>